<svg version="1" xmlns="http://www.w3.org/2000/svg" width="1029" height="1029" viewBox="0 0 1029 1029"><path d="M677.828,802.046c-130.97,30.436-129.945,194.626,0,220.824,46.98,9.46,81.239,5.33,116.679,4.6,152.092-9.59,232.053-87.745,233.353-193.22,1.48-22.56,1.48-27.344,0-36.8-4.43-76.412-44.69-169.7-51.335-188.621-5.347,152.24-94.855,188.207-196.02,193.221C758.771,803.144,695.542,797.933,677.828,802.046Z M829.9,1.181C906.365,13.67,972.206,86.026,993.145,143c14.225,49.733-19.692,122.342-55.337,158.187C891.143,188.458,797.338,107.168,674.956,74.819,712.183,29.934,750.507-7.15,829.9,1.181Z M593.82,461.609C548.236,352.127,626.423,298.2,733.834,332.8c56.063,21.174,84.737,47.937,103.826,91.4,27.861,79.128-30.528,190.523-113.16,161.623C668.437,563.1,631.021,531.327,593.82,461.609Z M351.129,802.046c130.971,30.436,129.945,194.626,0,220.824-46.979,9.46-81.238,5.33-116.678,4.6C82.359,1017.88,2.4,939.725,1.095,834.25c-1.477-22.56-1.477-27.344,0-36.8,4.43-76.412,44.694-169.7,51.338-188.621,5.346,152.24,94.855,188.207,196.019,193.221C270.187,803.144,333.416,797.933,351.129,802.046Z M199.057,1.181C122.593,13.67,56.751,86.026,35.813,143,21.592,192.736,55.5,265.345,91.15,301.19,137.815,188.458,231.62,107.168,354,74.819,316.774,29.934,278.45-7.15,199.057,1.181Z M435.138,461.609C480.722,352.127,402.535,298.2,295.124,332.8c-56.063,21.174-84.737,47.937-103.827,91.4-27.86,79.128,30.529,190.523,113.161,161.623C360.521,563.1,397.937,531.327,435.138,461.609Z M514.479,613.426c9.649-.25,28.582-9.2,56.005-9.2,13.966,0.25,28.257,6.232,28,23-0.61,14.436-27.237,30.551-42,46.005-17.314,20.7-30.351,36.441-42,36.8-14.812-.875-25.771-23.355-37.337-36.8-19.787-22.828-40.093-32.917-42-46-2.032-14.517,9.974-23,28-23C500.961,603.883,505.519,613.866,514.479,613.426Z"/></svg>