<svg id="sad" xmlns="http://www.w3.org/2000/svg" width="500" height="500" viewBox="0 0 500 500">
  <defs>
    <style>
      .cls-1 {
        fill: #1b1b1b;
        fill-rule: evenodd;
      }
    </style>
  </defs>
  <path id="Color_Fill_6" data-name="Color Fill 6" class="cls-1" d="M232,261c6.654-4.668,23.81-5.688,31,0s2.093,11.746,0,14c-8.371,7.727-10.015,6.883-12,13-1.02,2.737-1.322,4.6-1,9s11.293,4.1,18,7a27.623,27.623,0,0,1,10,7s-0.327,1.59-8,1-13.985-6.893-23-7-15.132,6.034-22,7-9-1-9-1,2.844-4.317,11-7,16.839-2.493,17-7,0.4-5.351-1-9c-2.522-6.332-5.132-5.273-12-13C228.1,271.566,225.346,265.668,232,261Z"/>
  <path class="cls-1" d="M274.9,163.792c5.062-2.525,20.744-3.939,39.446,6.88,22.824,12.3,34.877,23.3,41.28,36.7,7.008,14.774,7.2,26.45,5.5,33.485-1.908,7.924-5.375,13.3-9.174,16.972-6.234,6.026-15.2,9.08-25.685,9.174-7.931.071-18.466-.29-30.272-11.009-13.78-14.8-18.545-28.619-29.814-52.751-2.542-5.444-5.665-15.265-3.669-25.687C264.8,169.343,269.773,166.347,274.9,163.792Z"/>
  <path id="Ellipse_1_copy" data-name="Ellipse 1 copy" class="cls-1" d="M217.1,163.792c-5.062-2.525-20.744-3.939-39.446,6.88-22.824,12.3-34.877,23.3-41.28,36.7-7.008,14.774-7.2,26.45-5.5,33.485,1.908,7.924,5.375,13.3,9.174,16.972,6.234,6.026,15.2,9.08,25.685,9.174,7.931,0.071,18.466-.29,30.272-11.009,13.78-14.8,18.545-28.619,29.814-52.751,2.542-5.444,5.664-15.265,3.669-25.687C227.2,169.343,222.227,166.347,217.1,163.792Z"/>
  <path class="cls-1" d="M364,62c27.636,4.579,51.432,31.109,59,52,5.14,18.235-7.117,44.857-20,58-16.866-41.334-50.769-71.139-95-83C321.455,72.543,335.306,58.946,364,62Z"/>
  <path id="Ellipse_1_copy-2" data-name="Ellipse 1 copy" class="cls-1" d="M136,62c-27.636,4.579-51.433,31.109-59,52-5.14,18.235,7.117,44.857,20,58,16.865-41.334,50.769-71.139,95-83C178.545,72.543,164.694,58.946,136,62Z"/>
</svg>
